<svg aria-roledescription="gitGraph" role="graphics-document document" viewBox="-183.71875 -34.70000076293945 641.71875 118.39198303222656" style="max-width: 641.719px; background-color: transparent;" xmlns:xlink="http://www.w3.org/1999/xlink" xmlns="http://www.w3.org/2000/svg" width="100%" id="my-svg"><style>#my-svg{font-family:"trebuchet ms",verdana,arial,sans-serif;font-size:16px;fill:#333;}@keyframes edge-animation-frame{from{stroke-dashoffset:0;}}@keyframes dash{to{stroke-dashoffset:0;}}#my-svg .edge-animation-slow{stroke-dasharray:9,5!important;stroke-dashoffset:900;animation:dash 50s linear infinite;stroke-linecap:round;}#my-svg .edge-animation-fast{stroke-dasharray:9,5!important;stroke-dashoffset:900;animation:dash 20s linear infinite;stroke-linecap:round;}#my-svg .error-icon{fill:#552222;}#my-svg .error-text{fill:#552222;stroke:#552222;}#my-svg .edge-thickness-normal{stroke-width:1px;}#my-svg .edge-thickness-thick{stroke-width:3.5px;}#my-svg .edge-pattern-solid{stroke-dasharray:0;}#my-svg .edge-thickness-invisible{stroke-width:0;fill:none;}#my-svg .edge-pattern-dashed{stroke-dasharray:3;}#my-svg .edge-pattern-dotted{stroke-dasharray:2;}#my-svg .marker{fill:#333333;stroke:#333333;}#my-svg .marker.cross{stroke:#333333;}#my-svg svg{font-family:"trebuchet ms",verdana,arial,sans-serif;font-size:16px;}#my-svg p{margin:0;}#my-svg .commit-id,#my-svg .commit-msg,#my-svg .branch-label{fill:lightgrey;color:lightgrey;font-family:'trebuchet ms',verdana,arial,sans-serif;font-family:var(--mermaid-font-family);}#my-svg .branch-label0{fill:#ffffff;}#my-svg .commit0{stroke:hsl(240, 100%, 46.2745098039%);fill:hsl(240, 100%, 46.2745098039%);}#my-svg .commit-highlight0{stroke:hsl(60, 100%, 3.7254901961%);fill:hsl(60, 100%, 3.7254901961%);}#my-svg .label0{fill:hsl(240, 100%, 46.2745098039%);}#my-svg .arrow0{stroke:hsl(240, 100%, 46.2745098039%);}#my-svg .branch-label1{fill:black;}#my-svg .commit1{stroke:hsl(60, 100%, 43.5294117647%);fill:hsl(60, 100%, 43.5294117647%);}#my-svg .commit-highlight1{stroke:rgb(0, 0, 160.5);fill:rgb(0, 0, 160.5);}#my-svg .label1{fill:hsl(60, 100%, 43.5294117647%);}#my-svg .arrow1{stroke:hsl(60, 100%, 43.5294117647%);}#my-svg .branch-label2{fill:black;}#my-svg .commit2{stroke:hsl(80, 100%, 46.2745098039%);fill:hsl(80, 100%, 46.2745098039%);}#my-svg .commit-highlight2{stroke:rgb(48.8333333334, 0, 146.5000000001);fill:rgb(48.8333333334, 0, 146.5000000001);}#my-svg .label2{fill:hsl(80, 100%, 46.2745098039%);}#my-svg .arrow2{stroke:hsl(80, 100%, 46.2745098039%);}#my-svg .branch-label3{fill:#ffffff;}#my-svg .commit3{stroke:hsl(210, 100%, 46.2745098039%);fill:hsl(210, 100%, 46.2745098039%);}#my-svg .commit-highlight3{stroke:rgb(146.5000000001, 73.2500000001, 0);fill:rgb(146.5000000001, 73.2500000001, 0);}#my-svg .label3{fill:hsl(210, 100%, 46.2745098039%);}#my-svg .arrow3{stroke:hsl(210, 100%, 46.2745098039%);}#my-svg .branch-label4{fill:black;}#my-svg .commit4{stroke:hsl(180, 100%, 46.2745098039%);fill:hsl(180, 100%, 46.2745098039%);}#my-svg .commit-highlight4{stroke:rgb(146.5000000001, 0, 0);fill:rgb(146.5000000001, 0, 0);}#my-svg .label4{fill:hsl(180, 100%, 46.2745098039%);}#my-svg .arrow4{stroke:hsl(180, 100%, 46.2745098039%);}#my-svg .branch-label5{fill:black;}#my-svg .commit5{stroke:hsl(150, 100%, 46.2745098039%);fill:hsl(150, 100%, 46.2745098039%);}#my-svg .commit-highlight5{stroke:rgb(146.5000000001, 0, 73.2500000001);fill:rgb(146.5000000001, 0, 73.2500000001);}#my-svg .label5{fill:hsl(150, 100%, 46.2745098039%);}#my-svg .arrow5{stroke:hsl(150, 100%, 46.2745098039%);}#my-svg .branch-label6{fill:black;}#my-svg .commit6{stroke:hsl(300, 100%, 46.2745098039%);fill:hsl(300, 100%, 46.2745098039%);}#my-svg .commit-highlight6{stroke:rgb(0, 146.5000000001, 0);fill:rgb(0, 146.5000000001, 0);}#my-svg .label6{fill:hsl(300, 100%, 46.2745098039%);}#my-svg .arrow6{stroke:hsl(300, 100%, 46.2745098039%);}#my-svg .branch-label7{fill:black;}#my-svg .commit7{stroke:hsl(0, 100%, 46.2745098039%);fill:hsl(0, 100%, 46.2745098039%);}#my-svg .commit-highlight7{stroke:rgb(0, 146.5000000001, 146.5000000001);fill:rgb(0, 146.5000000001, 146.5000000001);}#my-svg .label7{fill:hsl(0, 100%, 46.2745098039%);}#my-svg .arrow7{stroke:hsl(0, 100%, 46.2745098039%);}#my-svg .branch{stroke-width:1;stroke:#333333;stroke-dasharray:2;}#my-svg .commit-label{font-size:10px;fill:#000021;}#my-svg .commit-label-bkg{font-size:10px;fill:#ffffde;opacity:0.5;}#my-svg .tag-label{font-size:10px;fill:#131300;}#my-svg .tag-label-bkg{fill:#ECECFF;stroke:hsl(240, 60%, 86.2745098039%);}#my-svg .tag-hole{fill:#333;}#my-svg .commit-merge{stroke:#ECECFF;fill:#ECECFF;}#my-svg .commit-reverse{stroke:#ECECFF;fill:#ECECFF;stroke-width:3;}#my-svg .commit-highlight-inner{stroke:#ECECFF;fill:#ECECFF;}#my-svg .arrow{stroke-width:8;stroke-linecap:round;fill:none;}#my-svg .gitTitleText{text-anchor:middle;font-size:18px;fill:#333;}#my-svg :root{--mermaid-font-family:"trebuchet ms",verdana,arial,sans-serif;}</style><g/><g class="commit-bullets"/><g class="commit-labels"/><g><line class="branch branch0" y2="0" x2="450" y1="0" x1="0"/><rect transform="translate(-19, -8.5)" height="21" width="140.71875" y="-0.5" x="-156.71875" ry="4" rx="4" class="branchLabelBkg label0"/><g class="branchLabel"><g transform="translate(-166.71875, -9.5)" class="label branch-label0"><text><tspan class="row" x="0" dy="1em" xml:space="preserve">... 4 more bosses</tspan></text></g></g></g><g class="commit-arrows"><path class="arrow arrow0" d="M 10 0 L 60 0"/><path class="arrow arrow0" d="M 60 0 L 110 0"/><path class="arrow arrow0" d="M 110 0 L 160 0"/><path class="arrow arrow0" d="M 160 0 L 210 0"/><path class="arrow arrow0" d="M 210 0 L 260 0"/><path class="arrow arrow0" d="M 260 0 L 310 0"/><path class="arrow arrow0" d="M 310 0 L 360 0"/><path class="arrow arrow0" d="M 360 0 L 410 0"/></g><g class="commit-bullets"><circle class="commit Eater of Worlds commit0" r="10" cy="0" cx="10"/><path class="commit commit-reverse Eater of Worlds commit0" d="M 5,-5L15,5M5,5L15,-5"/><circle class="commit The Hive Mind commit0" r="10" cy="0" cx="60"/><path class="commit commit-reverse The Hive Mind commit0" d="M 55,-5L65,5M55,5L65,-5"/><circle class="commit Queen Bee commit0" r="10" cy="0" cx="110"/><path class="commit commit-reverse Queen Bee commit0" d="M 105,-5L115,5M105,5L115,-5"/><circle class="commit Skeletron commit0" r="10" cy="0" cx="160"/><path class="commit commit-reverse Skeletron commit0" d="M 155,-5L165,5M155,5L165,-5"/><circle class="commit The Slime God commit0" r="10" cy="0" cx="210"/><path class="commit commit-reverse The Slime God commit0" d="M 205,-5L215,5M205,5L215,-5"/><circle class="commit Wall of Flesh commit0" r="10" cy="0" cx="260"/><path class="commit commit-reverse Wall of Flesh commit0" d="M 255,-5L265,5M255,5L265,-5"/><rect class="commit Queen Slime commit-highlight0 commit-highlight-outer" height="20" width="20" y="-10" x="300"/><rect class="commit Queen Slime commit0 commit-highlight-inner" height="12" width="12" y="-6" x="304"/><circle class="commit Aquatic Scourge commit0" r="10" cy="0" cx="360"/><circle class="commit ??? commit0" r="10" cy="0" cx="410"/></g><g class="commit-labels"><g transform="translate(-37.419062499999995, 33.3696875) rotate(-45, 0, 0)"><rect height="15" width="72.734375" y="13.5" x="-26.3671875" class="commit-label-bkg"/><text class="commit-label" y="25" x="-24.3671875">Eater of Worlds</text></g><g transform="translate(-35.798125, 31.919375) rotate(-45, 50, 0)"><rect height="15" width="68.46875" y="13.5" x="25.765625" class="commit-label-bkg"/><text class="commit-label" y="25" x="27.765625">The Hive Mind</text></g><g transform="translate(-30.69298828125, 27.35162109375) rotate(-45, 100, 0)"><rect height="15" width="55.0341796875" y="13.5" x="82.48291015625" class="commit-label-bkg"/><text class="commit-label" y="25" x="84.48291015625">Queen Bee</text></g><g transform="translate(-27.354999999999997, 24.365000000000002) rotate(-45, 150, 0)"><rect height="15" width="46.25" y="13.5" x="136.875" class="commit-label-bkg"/><text class="commit-label" y="25" x="138.875">Skeletron</text></g><g transform="translate(-36.6471875, 32.6790625) rotate(-45, 200, 0)"><rect height="15" width="70.703125" y="13.5" x="174.6484375" class="commit-label-bkg"/><text class="commit-label" y="25" x="176.6484375">The Slime God</text></g><g transform="translate(-33.1203125, 29.5234375) rotate(-45, 250, 0)"><rect height="15" width="61.421875" y="13.5" x="229.2890625" class="commit-label-bkg"/><text class="commit-label" y="25" x="231.2890625">Wall of Flesh</text></g><g transform="translate(-33.433515625, 29.803671875000003) rotate(-45, 300, 0)"><rect height="15" width="62.24609375" y="13.5" x="278.876953125" class="commit-label-bkg"/><text class="commit-label" y="25" x="280.876953125">Queen Slime</text></g><polygon points="256.03125,-17.2  &#10;      256.03125,-21.2&#10;      264.03125,-26.7&#10;      355.96875,-26.7&#10;      355.96875,-11.7&#10;      264.03125,-11.7" class="tag-label-bkg"/><circle class="tag-hole" r="1.5" cx="260.03125" cy="-19.2"/><text x="268.03125" class="tag-label" y="-16">Currently fighting...</text><g transform="translate(-39.35060546875, 35.097910156249995) rotate(-45, 350, 0)"><rect height="15" width="77.8173828125" y="13.5" x="321.09130859375" class="commit-label-bkg"/><text class="commit-label" y="25" x="323.09130859375">Aquatic Scourge</text></g><g transform="translate(-17.806757812500003, 15.821835937500001) rotate(-45, 400, 0)"><rect height="15" width="21.123046875" y="13.5" x="399.4384765625" class="commit-label-bkg"/><text class="commit-label" y="25" x="401.4384765625">???</text></g></g></svg>